G04 #@! TF.FileFunction,Legend,Top*
%FSLAX46Y46*%
G04 Gerber Fmt 4.6, Leading zero omitted, Abs format (unit mm)*
G04 Created by KiCad (PCBNEW (after 2015-mar-04 BZR unknown)-product) date 04/08/2015 09:15:02*
%MOMM*%
G01*
G04 APERTURE LIST*
%ADD10C,0.100000*%
%ADD11C,0.300000*%
%ADD12C,0.099060*%
%ADD13C,0.127000*%
%ADD14C,0.150000*%
%ADD15C,0.304800*%
%ADD16C,0.109220*%
%ADD17C,0.114300*%
%ADD18C,0.152000*%
G04 APERTURE END LIST*
D10*
D11*
X151250000Y-107500000D02*
X151250000Y-107750000D01*
X151250000Y-100500000D02*
X151250000Y-107500000D01*
D12*
X156828500Y-109162000D02*
G75*
G03X156828500Y-109162000I-127000J0D01*
G01*
X157844500Y-109162000D02*
X156828500Y-109162000D01*
X156828500Y-109162000D02*
X156828500Y-107638000D01*
X156828500Y-107638000D02*
X157844500Y-107638000D01*
X158860500Y-107638000D02*
X159876500Y-107638000D01*
X159876500Y-107638000D02*
X159876500Y-109162000D01*
X159876500Y-109162000D02*
X158860500Y-109162000D01*
X156876000Y-107562000D02*
G75*
G03X156876000Y-107562000I-127000J0D01*
G01*
X157892000Y-107562000D02*
X156876000Y-107562000D01*
X156876000Y-107562000D02*
X156876000Y-106038000D01*
X156876000Y-106038000D02*
X157892000Y-106038000D01*
X158908000Y-106038000D02*
X159924000Y-106038000D01*
X159924000Y-106038000D02*
X159924000Y-107562000D01*
X159924000Y-107562000D02*
X158908000Y-107562000D01*
X152428500Y-101562000D02*
G75*
G03X152428500Y-101562000I-127000J0D01*
G01*
X153444500Y-101562000D02*
X152428500Y-101562000D01*
X152428500Y-101562000D02*
X152428500Y-100038000D01*
X152428500Y-100038000D02*
X153444500Y-100038000D01*
X154460500Y-100038000D02*
X155476500Y-100038000D01*
X155476500Y-100038000D02*
X155476500Y-101562000D01*
X155476500Y-101562000D02*
X154460500Y-101562000D01*
D13*
X154943000Y-108035000D02*
X152657000Y-108035000D01*
X152657000Y-108035000D02*
X152657000Y-106765000D01*
X152657000Y-106765000D02*
X154943000Y-106765000D01*
X154943000Y-106765000D02*
X154943000Y-108035000D01*
X158365000Y-103781000D02*
X158365000Y-101495000D01*
X158365000Y-101495000D02*
X159635000Y-101495000D01*
X159635000Y-101495000D02*
X159635000Y-103781000D01*
X159635000Y-103781000D02*
X158365000Y-103781000D01*
D14*
X154355278Y-101675000D02*
G75*
G03X154355278Y-101675000I-180278J0D01*
G01*
X157125000Y-102325000D02*
X154125000Y-102325000D01*
X154125000Y-102325000D02*
X154125000Y-105325000D01*
X154125000Y-105325000D02*
X157125000Y-105325000D01*
X157125000Y-105325000D02*
X157125000Y-102325000D01*
D15*
X166140000Y-98920000D02*
X166140000Y-109080000D01*
X166140000Y-109080000D02*
X161060000Y-109080000D01*
X161060000Y-109080000D02*
X161060000Y-98920000D01*
X161060000Y-98920000D02*
X166140000Y-98920000D01*
D13*
X149943000Y-101460000D02*
X147657000Y-101460000D01*
X147657000Y-101460000D02*
X147657000Y-103111000D01*
X149943000Y-104889000D02*
X149943000Y-106540000D01*
X149943000Y-106540000D02*
X147657000Y-106540000D01*
X147657000Y-106540000D02*
X147657000Y-104889000D01*
X149943000Y-103111000D02*
X149943000Y-101460000D01*
X160885000Y-103857000D02*
X160885000Y-106143000D01*
X160885000Y-106143000D02*
X159615000Y-106143000D01*
X159615000Y-106143000D02*
X159615000Y-103857000D01*
X159615000Y-103857000D02*
X160885000Y-103857000D01*
D16*
X154940052Y-108678707D02*
X154916224Y-108702535D01*
X154844741Y-108726362D01*
X154797086Y-108726362D01*
X154725603Y-108702535D01*
X154677948Y-108654880D01*
X154654120Y-108607224D01*
X154630292Y-108511914D01*
X154630292Y-108440431D01*
X154654120Y-108345120D01*
X154677948Y-108297465D01*
X154725603Y-108249810D01*
X154797086Y-108225982D01*
X154844741Y-108225982D01*
X154916224Y-108249810D01*
X154940052Y-108273638D01*
X155416604Y-108726362D02*
X155130672Y-108726362D01*
X155273638Y-108726362D02*
X155273638Y-108225982D01*
X155225983Y-108297465D01*
X155178328Y-108345120D01*
X155130672Y-108368948D01*
X155726363Y-108225982D02*
X155774018Y-108225982D01*
X155821673Y-108249810D01*
X155845501Y-108273638D01*
X155869328Y-108321293D01*
X155893156Y-108416603D01*
X155893156Y-108535741D01*
X155869328Y-108631052D01*
X155845501Y-108678707D01*
X155821673Y-108702535D01*
X155774018Y-108726362D01*
X155726363Y-108726362D01*
X155678707Y-108702535D01*
X155654880Y-108678707D01*
X155631052Y-108631052D01*
X155607224Y-108535741D01*
X155607224Y-108416603D01*
X155631052Y-108321293D01*
X155654880Y-108273638D01*
X155678707Y-108249810D01*
X155726363Y-108225982D01*
X156369708Y-108726362D02*
X156083776Y-108726362D01*
X156226742Y-108726362D02*
X156226742Y-108225982D01*
X156179087Y-108297465D01*
X156131432Y-108345120D01*
X156083776Y-108368948D01*
X155190052Y-106178707D02*
X155166224Y-106202535D01*
X155094741Y-106226362D01*
X155047086Y-106226362D01*
X154975603Y-106202535D01*
X154927948Y-106154880D01*
X154904120Y-106107224D01*
X154880292Y-106011914D01*
X154880292Y-105940431D01*
X154904120Y-105845120D01*
X154927948Y-105797465D01*
X154975603Y-105749810D01*
X155047086Y-105725982D01*
X155094741Y-105725982D01*
X155166224Y-105749810D01*
X155190052Y-105773638D01*
X155666604Y-106226362D02*
X155380672Y-106226362D01*
X155523638Y-106226362D02*
X155523638Y-105725982D01*
X155475983Y-105797465D01*
X155428328Y-105845120D01*
X155380672Y-105868948D01*
X155976363Y-105725982D02*
X156024018Y-105725982D01*
X156071673Y-105749810D01*
X156095501Y-105773638D01*
X156119328Y-105821293D01*
X156143156Y-105916603D01*
X156143156Y-106035741D01*
X156119328Y-106131052D01*
X156095501Y-106178707D01*
X156071673Y-106202535D01*
X156024018Y-106226362D01*
X155976363Y-106226362D01*
X155928707Y-106202535D01*
X155904880Y-106178707D01*
X155881052Y-106131052D01*
X155857224Y-106035741D01*
X155857224Y-105916603D01*
X155881052Y-105821293D01*
X155904880Y-105773638D01*
X155928707Y-105749810D01*
X155976363Y-105725982D01*
X156333776Y-105773638D02*
X156357604Y-105749810D01*
X156405259Y-105725982D01*
X156524397Y-105725982D01*
X156572053Y-105749810D01*
X156595880Y-105773638D01*
X156619708Y-105821293D01*
X156619708Y-105868948D01*
X156595880Y-105940431D01*
X156309949Y-106226362D01*
X156619708Y-106226362D01*
X153392552Y-99428707D02*
X153368724Y-99452535D01*
X153297241Y-99476362D01*
X153249586Y-99476362D01*
X153178103Y-99452535D01*
X153130448Y-99404880D01*
X153106620Y-99357224D01*
X153082792Y-99261914D01*
X153082792Y-99190431D01*
X153106620Y-99095120D01*
X153130448Y-99047465D01*
X153178103Y-98999810D01*
X153249586Y-98975982D01*
X153297241Y-98975982D01*
X153368724Y-98999810D01*
X153392552Y-99023638D01*
X153869104Y-99476362D02*
X153583172Y-99476362D01*
X153726138Y-99476362D02*
X153726138Y-98975982D01*
X153678483Y-99047465D01*
X153630828Y-99095120D01*
X153583172Y-99118948D01*
X154178863Y-98975982D02*
X154226518Y-98975982D01*
X154274173Y-98999810D01*
X154298001Y-99023638D01*
X154321828Y-99071293D01*
X154345656Y-99166603D01*
X154345656Y-99285741D01*
X154321828Y-99381052D01*
X154298001Y-99428707D01*
X154274173Y-99452535D01*
X154226518Y-99476362D01*
X154178863Y-99476362D01*
X154131207Y-99452535D01*
X154107380Y-99428707D01*
X154083552Y-99381052D01*
X154059724Y-99285741D01*
X154059724Y-99166603D01*
X154083552Y-99071293D01*
X154107380Y-99023638D01*
X154131207Y-98999810D01*
X154178863Y-98975982D01*
X154512449Y-98975982D02*
X154822208Y-98975982D01*
X154655415Y-99166603D01*
X154726897Y-99166603D01*
X154774553Y-99190431D01*
X154798380Y-99214259D01*
X154822208Y-99261914D01*
X154822208Y-99381052D01*
X154798380Y-99428707D01*
X154774553Y-99452535D01*
X154726897Y-99476362D01*
X154583932Y-99476362D01*
X154536276Y-99452535D01*
X154512449Y-99428707D01*
D17*
X152238371Y-106229810D02*
X152085971Y-105987905D01*
X151977114Y-106229810D02*
X151977114Y-105721810D01*
X152151286Y-105721810D01*
X152194828Y-105746000D01*
X152216600Y-105770190D01*
X152238371Y-105818571D01*
X152238371Y-105891143D01*
X152216600Y-105939524D01*
X152194828Y-105963714D01*
X152151286Y-105987905D01*
X151977114Y-105987905D01*
X152673800Y-106229810D02*
X152412543Y-106229810D01*
X152543171Y-106229810D02*
X152543171Y-105721810D01*
X152499628Y-105794381D01*
X152456086Y-105842762D01*
X152412543Y-105866952D01*
X152956829Y-105721810D02*
X153000372Y-105721810D01*
X153043915Y-105746000D01*
X153065686Y-105770190D01*
X153087457Y-105818571D01*
X153109229Y-105915333D01*
X153109229Y-106036286D01*
X153087457Y-106133048D01*
X153065686Y-106181429D01*
X153043915Y-106205619D01*
X153000372Y-106229810D01*
X152956829Y-106229810D01*
X152913286Y-106205619D01*
X152891515Y-106181429D01*
X152869743Y-106133048D01*
X152847972Y-106036286D01*
X152847972Y-105915333D01*
X152869743Y-105818571D01*
X152891515Y-105770190D01*
X152913286Y-105746000D01*
X152956829Y-105721810D01*
X153544658Y-106229810D02*
X153283401Y-106229810D01*
X153414029Y-106229810D02*
X153414029Y-105721810D01*
X153370486Y-105794381D01*
X153326944Y-105842762D01*
X153283401Y-105866952D01*
X159229810Y-100761629D02*
X158987905Y-100914029D01*
X159229810Y-101022886D02*
X158721810Y-101022886D01*
X158721810Y-100848714D01*
X158746000Y-100805172D01*
X158770190Y-100783400D01*
X158818571Y-100761629D01*
X158891143Y-100761629D01*
X158939524Y-100783400D01*
X158963714Y-100805172D01*
X158987905Y-100848714D01*
X158987905Y-101022886D01*
X159229810Y-100326200D02*
X159229810Y-100587457D01*
X159229810Y-100456829D02*
X158721810Y-100456829D01*
X158794381Y-100500372D01*
X158842762Y-100543914D01*
X158866952Y-100587457D01*
X158721810Y-100043171D02*
X158721810Y-99999628D01*
X158746000Y-99956085D01*
X158770190Y-99934314D01*
X158818571Y-99912543D01*
X158915333Y-99890771D01*
X159036286Y-99890771D01*
X159133048Y-99912543D01*
X159181429Y-99934314D01*
X159205619Y-99956085D01*
X159229810Y-99999628D01*
X159229810Y-100043171D01*
X159205619Y-100086714D01*
X159181429Y-100108485D01*
X159133048Y-100130257D01*
X159036286Y-100152028D01*
X158915333Y-100152028D01*
X158818571Y-100130257D01*
X158770190Y-100108485D01*
X158746000Y-100086714D01*
X158721810Y-100043171D01*
X158770190Y-99716599D02*
X158746000Y-99694828D01*
X158721810Y-99651285D01*
X158721810Y-99542428D01*
X158746000Y-99498885D01*
X158770190Y-99477114D01*
X158818571Y-99455342D01*
X158866952Y-99455342D01*
X158939524Y-99477114D01*
X159229810Y-99738371D01*
X159229810Y-99455342D01*
D14*
X156221428Y-100171429D02*
X156221428Y-100657143D01*
X156250000Y-100714286D01*
X156278571Y-100742857D01*
X156335714Y-100771429D01*
X156450000Y-100771429D01*
X156507142Y-100742857D01*
X156535714Y-100714286D01*
X156564285Y-100657143D01*
X156564285Y-100171429D01*
X157164285Y-100771429D02*
X156821428Y-100771429D01*
X156992856Y-100771429D02*
X156992856Y-100171429D01*
X156935713Y-100257143D01*
X156878571Y-100314286D01*
X156821428Y-100342857D01*
X157535714Y-100171429D02*
X157592857Y-100171429D01*
X157650000Y-100200000D01*
X157678571Y-100228571D01*
X157707142Y-100285714D01*
X157735714Y-100400000D01*
X157735714Y-100542857D01*
X157707142Y-100657143D01*
X157678571Y-100714286D01*
X157650000Y-100742857D01*
X157592857Y-100771429D01*
X157535714Y-100771429D01*
X157478571Y-100742857D01*
X157450000Y-100714286D01*
X157421428Y-100657143D01*
X157392857Y-100542857D01*
X157392857Y-100400000D01*
X157421428Y-100285714D01*
X157450000Y-100228571D01*
X157478571Y-100200000D01*
X157535714Y-100171429D01*
X158307143Y-100771429D02*
X157964286Y-100771429D01*
X158135714Y-100771429D02*
X158135714Y-100171429D01*
X158078571Y-100257143D01*
X158021429Y-100314286D01*
X157964286Y-100342857D01*
D18*
X147316667Y-100816667D02*
X147316667Y-100116667D01*
X147483333Y-100116667D01*
X147583333Y-100150000D01*
X147650000Y-100216667D01*
X147683333Y-100283333D01*
X147716667Y-100416667D01*
X147716667Y-100516667D01*
X147683333Y-100650000D01*
X147650000Y-100716667D01*
X147583333Y-100783333D01*
X147483333Y-100816667D01*
X147316667Y-100816667D01*
X148383333Y-100816667D02*
X147983333Y-100816667D01*
X148183333Y-100816667D02*
X148183333Y-100116667D01*
X148116667Y-100216667D01*
X148050000Y-100283333D01*
X147983333Y-100316667D01*
X148816667Y-100116667D02*
X148883334Y-100116667D01*
X148950000Y-100150000D01*
X148983334Y-100183333D01*
X149016667Y-100250000D01*
X149050000Y-100383333D01*
X149050000Y-100550000D01*
X149016667Y-100683333D01*
X148983334Y-100750000D01*
X148950000Y-100783333D01*
X148883334Y-100816667D01*
X148816667Y-100816667D01*
X148750000Y-100783333D01*
X148716667Y-100750000D01*
X148683334Y-100683333D01*
X148650000Y-100550000D01*
X148650000Y-100383333D01*
X148683334Y-100250000D01*
X148716667Y-100183333D01*
X148750000Y-100150000D01*
X148816667Y-100116667D01*
X149716667Y-100816667D02*
X149316667Y-100816667D01*
X149516667Y-100816667D02*
X149516667Y-100116667D01*
X149450001Y-100216667D01*
X149383334Y-100283333D01*
X149316667Y-100316667D01*
D17*
X158979810Y-105511629D02*
X158737905Y-105664029D01*
X158979810Y-105772886D02*
X158471810Y-105772886D01*
X158471810Y-105598714D01*
X158496000Y-105555172D01*
X158520190Y-105533400D01*
X158568571Y-105511629D01*
X158641143Y-105511629D01*
X158689524Y-105533400D01*
X158713714Y-105555172D01*
X158737905Y-105598714D01*
X158737905Y-105772886D01*
X158979810Y-105076200D02*
X158979810Y-105337457D01*
X158979810Y-105206829D02*
X158471810Y-105206829D01*
X158544381Y-105250372D01*
X158592762Y-105293914D01*
X158616952Y-105337457D01*
X158471810Y-104793171D02*
X158471810Y-104749628D01*
X158496000Y-104706085D01*
X158520190Y-104684314D01*
X158568571Y-104662543D01*
X158665333Y-104640771D01*
X158786286Y-104640771D01*
X158883048Y-104662543D01*
X158931429Y-104684314D01*
X158955619Y-104706085D01*
X158979810Y-104749628D01*
X158979810Y-104793171D01*
X158955619Y-104836714D01*
X158931429Y-104858485D01*
X158883048Y-104880257D01*
X158786286Y-104902028D01*
X158665333Y-104902028D01*
X158568571Y-104880257D01*
X158520190Y-104858485D01*
X158496000Y-104836714D01*
X158471810Y-104793171D01*
X158471810Y-104488371D02*
X158471810Y-104205342D01*
X158665333Y-104357742D01*
X158665333Y-104292428D01*
X158689524Y-104248885D01*
X158713714Y-104227114D01*
X158762095Y-104205342D01*
X158883048Y-104205342D01*
X158931429Y-104227114D01*
X158955619Y-104248885D01*
X158979810Y-104292428D01*
X158979810Y-104423056D01*
X158955619Y-104466599D01*
X158931429Y-104488371D01*
M02*
