G04 #@! TF.FileFunction,Legend,Bot*
%FSLAX46Y46*%
G04 Gerber Fmt 4.6, Leading zero omitted, Abs format (unit mm)*
G04 Created by KiCad (PCBNEW (after 2015-mar-04 BZR unknown)-product) date 04/08/2015 09:15:02*
%MOMM*%
G01*
G04 APERTURE LIST*
%ADD10C,0.100000*%
%ADD11C,0.158750*%
%ADD12C,0.200000*%
G04 APERTURE END LIST*
D10*
D11*
X156566429Y-104902262D02*
X156203572Y-104902262D01*
X156385000Y-105537262D02*
X156385000Y-104902262D01*
X156052381Y-104902262D02*
X155629047Y-105537262D01*
X155629047Y-104902262D02*
X156052381Y-105537262D01*
X155266190Y-104902262D02*
X155145238Y-104902262D01*
X155084762Y-104932500D01*
X155024285Y-104992976D01*
X154994047Y-105113929D01*
X154994047Y-105325595D01*
X155024285Y-105446548D01*
X155084762Y-105507024D01*
X155145238Y-105537262D01*
X155266190Y-105537262D01*
X155326666Y-105507024D01*
X155387143Y-105446548D01*
X155417381Y-105325595D01*
X155417381Y-105113929D01*
X155387143Y-104992976D01*
X155326666Y-104932500D01*
X155266190Y-104902262D01*
X156536191Y-103037262D02*
X156536191Y-102402262D01*
X156294286Y-102402262D01*
X156233810Y-102432500D01*
X156203571Y-102462738D01*
X156173333Y-102523214D01*
X156173333Y-102613929D01*
X156203571Y-102674405D01*
X156233810Y-102704643D01*
X156294286Y-102734881D01*
X156536191Y-102734881D01*
X155538333Y-103037262D02*
X155750000Y-102734881D01*
X155901191Y-103037262D02*
X155901191Y-102402262D01*
X155659286Y-102402262D01*
X155598810Y-102432500D01*
X155568571Y-102462738D01*
X155538333Y-102523214D01*
X155538333Y-102613929D01*
X155568571Y-102674405D01*
X155598810Y-102704643D01*
X155659286Y-102734881D01*
X155901191Y-102734881D01*
X155326667Y-102402262D02*
X154903333Y-103037262D01*
X154903333Y-102402262D02*
X155326667Y-103037262D01*
X160118810Y-105507024D02*
X160028095Y-105537262D01*
X159876905Y-105537262D01*
X159816429Y-105507024D01*
X159786191Y-105476786D01*
X159755952Y-105416310D01*
X159755952Y-105355833D01*
X159786191Y-105295357D01*
X159816429Y-105265119D01*
X159876905Y-105234881D01*
X159997857Y-105204643D01*
X160058333Y-105174405D01*
X160088572Y-105144167D01*
X160118810Y-105083690D01*
X160118810Y-105023214D01*
X160088572Y-104962738D01*
X160058333Y-104932500D01*
X159997857Y-104902262D01*
X159846667Y-104902262D01*
X159755952Y-104932500D01*
X159120952Y-105537262D02*
X159332619Y-105234881D01*
X159483810Y-105537262D02*
X159483810Y-104902262D01*
X159241905Y-104902262D01*
X159181429Y-104932500D01*
X159151190Y-104962738D01*
X159120952Y-105023214D01*
X159120952Y-105113929D01*
X159151190Y-105174405D01*
X159181429Y-105204643D01*
X159241905Y-105234881D01*
X159483810Y-105234881D01*
X158848810Y-105204643D02*
X158637143Y-105204643D01*
X158546429Y-105537262D02*
X158848810Y-105537262D01*
X158848810Y-104902262D01*
X158546429Y-104902262D01*
X158274286Y-105537262D02*
X158274286Y-104902262D01*
X157911428Y-105537262D01*
X157911428Y-104902262D01*
X158476786Y-102704643D02*
X158688453Y-102704643D01*
X158688453Y-103037262D02*
X158688453Y-102402262D01*
X158386072Y-102402262D01*
X157781309Y-103037262D02*
X157992976Y-102734881D01*
X158144167Y-103037262D02*
X158144167Y-102402262D01*
X157902262Y-102402262D01*
X157841786Y-102432500D01*
X157811547Y-102462738D01*
X157781309Y-102523214D01*
X157781309Y-102613929D01*
X157811547Y-102674405D01*
X157841786Y-102704643D01*
X157902262Y-102734881D01*
X158144167Y-102734881D01*
X157483809Y-99932500D02*
X157544286Y-99902262D01*
X157635000Y-99902262D01*
X157725714Y-99932500D01*
X157786190Y-99992976D01*
X157816429Y-100053452D01*
X157846667Y-100174405D01*
X157846667Y-100265119D01*
X157816429Y-100386071D01*
X157786190Y-100446548D01*
X157725714Y-100507024D01*
X157635000Y-100537262D01*
X157574524Y-100537262D01*
X157483809Y-100507024D01*
X157453571Y-100476786D01*
X157453571Y-100265119D01*
X157574524Y-100265119D01*
X157181429Y-100537262D02*
X157181429Y-99902262D01*
X156818571Y-100537262D01*
X156818571Y-99902262D01*
X156516191Y-100537262D02*
X156516191Y-99902262D01*
X156365000Y-99902262D01*
X156274286Y-99932500D01*
X156213810Y-99992976D01*
X156183571Y-100053452D01*
X156153333Y-100174405D01*
X156153333Y-100265119D01*
X156183571Y-100386071D01*
X156213810Y-100446548D01*
X156274286Y-100507024D01*
X156365000Y-100537262D01*
X156516191Y-100537262D01*
X158096667Y-107652262D02*
X157885000Y-108287262D01*
X157673333Y-107652262D01*
X157098809Y-108226786D02*
X157129047Y-108257024D01*
X157219762Y-108287262D01*
X157280238Y-108287262D01*
X157370952Y-108257024D01*
X157431428Y-108196548D01*
X157461667Y-108136071D01*
X157491905Y-108015119D01*
X157491905Y-107924405D01*
X157461667Y-107803452D01*
X157431428Y-107742976D01*
X157370952Y-107682500D01*
X157280238Y-107652262D01*
X157219762Y-107652262D01*
X157129047Y-107682500D01*
X157098809Y-107712738D01*
X156463809Y-108226786D02*
X156494047Y-108257024D01*
X156584762Y-108287262D01*
X156645238Y-108287262D01*
X156735952Y-108257024D01*
X156796428Y-108196548D01*
X156826667Y-108136071D01*
X156856905Y-108015119D01*
X156856905Y-107924405D01*
X156826667Y-107803452D01*
X156796428Y-107742976D01*
X156735952Y-107682500D01*
X156645238Y-107652262D01*
X156584762Y-107652262D01*
X156494047Y-107682500D01*
X156463809Y-107712738D01*
D12*
X157250000Y-101750000D02*
X157250000Y-106750000D01*
M02*
