G04 #@! TF.FileFunction,Copper,L2,Bot,Signal*
%FSLAX46Y46*%
G04 Gerber Fmt 4.6, Leading zero omitted, Abs format (unit mm)*
G04 Created by KiCad (PCBNEW (after 2015-mar-04 BZR unknown)-product) date 04/08/2015 09:15:02*
%MOMM*%
G01*
G04 APERTURE LIST*
%ADD10C,0.100000*%
%ADD11R,1.524000X1.524000*%
%ADD12C,1.524000*%
%ADD13C,1.300000*%
%ADD14C,0.600000*%
%ADD15C,0.250000*%
G04 APERTURE END LIST*
D10*
D11*
X162330000Y-100190000D03*
D12*
X164870000Y-100190000D03*
X162330000Y-102730000D03*
X164870000Y-102730000D03*
X162330000Y-105270000D03*
X164870000Y-105270000D03*
X162330000Y-107810000D03*
X164870000Y-107810000D03*
D13*
X151250000Y-108500000D03*
X151250000Y-99750000D03*
D14*
X156019639Y-107400000D03*
X160250000Y-107000000D03*
X160500000Y-108500000D03*
X152500000Y-103250000D03*
X156000000Y-100750000D03*
X160250000Y-102250000D03*
X152750000Y-104750000D03*
D15*
X162330000Y-107810000D02*
X161014999Y-109125001D01*
X161014999Y-109125001D02*
X157744640Y-109125001D01*
X157744640Y-109125001D02*
X156019639Y-107400000D01*
X164870000Y-107810000D02*
X163792370Y-107810000D01*
X163792370Y-107810000D02*
X162330000Y-107810000D01*
X164870000Y-100190000D02*
X163792370Y-100190000D01*
X163792370Y-100190000D02*
X162330000Y-100190000D01*
X153000000Y-106000000D02*
X152124999Y-105124999D01*
X152124999Y-105124999D02*
X152124999Y-103625001D01*
X152124999Y-103625001D02*
X152200001Y-103549999D01*
X152200001Y-103549999D02*
X152500000Y-103250000D01*
X159250000Y-106000000D02*
X153000000Y-106000000D01*
X160250000Y-107000000D02*
X159250000Y-106000000D01*
X160500000Y-108075736D02*
X160500000Y-107250000D01*
X160500000Y-107250000D02*
X160250000Y-107000000D01*
X160500000Y-108500000D02*
X160500000Y-108075736D01*
X152500000Y-103250000D02*
X153500000Y-103250000D01*
X153500000Y-103250000D02*
X156000000Y-100750000D01*
X156000000Y-100750000D02*
X156560000Y-100190000D01*
X156560000Y-100190000D02*
X162330000Y-100190000D01*
X160250000Y-102250000D02*
X162310000Y-100190000D01*
X162310000Y-100190000D02*
X162330000Y-100190000D01*
X161232370Y-105250000D02*
X153250000Y-105250000D01*
X153250000Y-105250000D02*
X152750000Y-104750000D01*
X162330000Y-105270000D02*
X161252370Y-105270000D01*
X161252370Y-105270000D02*
X161232370Y-105250000D01*
G36*
X166075000Y-109075000D02*
X161772106Y-109075000D01*
X161959730Y-108887375D01*
X162102845Y-108946802D01*
X162555171Y-108947197D01*
X162973217Y-108774464D01*
X163293340Y-108454900D01*
X163353507Y-108310000D01*
X163792370Y-108310000D01*
X163846359Y-108310000D01*
X163905536Y-108453217D01*
X164225100Y-108773340D01*
X164642845Y-108946802D01*
X165095171Y-108947197D01*
X165513217Y-108774464D01*
X165833340Y-108454900D01*
X166006802Y-108037155D01*
X166007197Y-107584829D01*
X166007197Y-105044829D01*
X166007197Y-102504829D01*
X165834464Y-102086783D01*
X165514900Y-101766660D01*
X165097155Y-101593198D01*
X164644829Y-101592803D01*
X164226783Y-101765536D01*
X163906660Y-102085100D01*
X163733198Y-102502845D01*
X163732803Y-102955171D01*
X163905536Y-103373217D01*
X164225100Y-103693340D01*
X164642845Y-103866802D01*
X165095171Y-103867197D01*
X165513217Y-103694464D01*
X165833340Y-103374900D01*
X166006802Y-102957155D01*
X166007197Y-102504829D01*
X166007197Y-105044829D01*
X165834464Y-104626783D01*
X165514900Y-104306660D01*
X165097155Y-104133198D01*
X164644829Y-104132803D01*
X164226783Y-104305536D01*
X163906660Y-104625100D01*
X163733198Y-105042845D01*
X163732803Y-105495171D01*
X163905536Y-105913217D01*
X164225100Y-106233340D01*
X164642845Y-106406802D01*
X165095171Y-106407197D01*
X165513217Y-106234464D01*
X165833340Y-105914900D01*
X166006802Y-105497155D01*
X166007197Y-105044829D01*
X166007197Y-107584829D01*
X165834464Y-107166783D01*
X165514900Y-106846660D01*
X165097155Y-106673198D01*
X164644829Y-106672803D01*
X164226783Y-106845536D01*
X163906660Y-107165100D01*
X163846492Y-107310000D01*
X163792370Y-107310000D01*
X163467197Y-107310000D01*
X163467197Y-105044829D01*
X163467197Y-102504829D01*
X163294464Y-102086783D01*
X162974900Y-101766660D01*
X162557155Y-101593198D01*
X162104829Y-101592803D01*
X161686783Y-101765536D01*
X161366660Y-102085100D01*
X161193198Y-102502845D01*
X161192803Y-102955171D01*
X161365536Y-103373217D01*
X161685100Y-103693340D01*
X162102845Y-103866802D01*
X162555171Y-103867197D01*
X162973217Y-103694464D01*
X163293340Y-103374900D01*
X163466802Y-102957155D01*
X163467197Y-102504829D01*
X163467197Y-105044829D01*
X163294464Y-104626783D01*
X162974900Y-104306660D01*
X162557155Y-104133198D01*
X162104829Y-104132803D01*
X161686783Y-104305536D01*
X161366660Y-104625100D01*
X161308508Y-104765144D01*
X161232370Y-104750000D01*
X153457106Y-104750000D01*
X153425028Y-104717921D01*
X153425117Y-104616323D01*
X153322571Y-104368143D01*
X153132856Y-104178097D01*
X152884855Y-104075117D01*
X152616323Y-104074883D01*
X152368143Y-104177429D01*
X152178097Y-104367144D01*
X152075117Y-104615145D01*
X152074883Y-104883677D01*
X152177429Y-105131857D01*
X152367144Y-105321903D01*
X152615145Y-105424883D01*
X152717865Y-105424972D01*
X152896447Y-105603554D01*
X153058658Y-105711940D01*
X153250000Y-105750000D01*
X161151822Y-105750000D01*
X161151824Y-105750000D01*
X161252370Y-105770000D01*
X161306359Y-105770000D01*
X161365536Y-105913217D01*
X161685100Y-106233340D01*
X162102845Y-106406802D01*
X162555171Y-106407197D01*
X162973217Y-106234464D01*
X163293340Y-105914900D01*
X163466802Y-105497155D01*
X163467197Y-105044829D01*
X163467197Y-107310000D01*
X163353640Y-107310000D01*
X163294464Y-107166783D01*
X162974900Y-106846660D01*
X162557155Y-106673198D01*
X162104829Y-106672803D01*
X161686783Y-106845536D01*
X161366660Y-107165100D01*
X161193198Y-107582845D01*
X161192803Y-108035171D01*
X161252717Y-108180175D01*
X160807892Y-108625001D01*
X157951746Y-108625001D01*
X156694667Y-107367922D01*
X156694756Y-107266323D01*
X156592210Y-107018143D01*
X156402495Y-106828097D01*
X156154494Y-106725117D01*
X155885962Y-106724883D01*
X155637782Y-106827429D01*
X155447736Y-107017144D01*
X155344756Y-107265145D01*
X155344522Y-107533677D01*
X155447068Y-107781857D01*
X155636783Y-107971903D01*
X155884784Y-108074883D01*
X155987505Y-108074972D01*
X156987532Y-109075000D01*
X152121092Y-109075000D01*
X152274822Y-108704780D01*
X152275178Y-108297009D01*
X152119459Y-107920143D01*
X151831374Y-107631554D01*
X151454780Y-107475178D01*
X151047009Y-107474822D01*
X150670143Y-107630541D01*
X150381554Y-107918626D01*
X150225178Y-108295220D01*
X150224822Y-108702991D01*
X150378534Y-109075000D01*
X146675000Y-109075000D01*
X146675000Y-98925000D01*
X150625606Y-98925000D01*
X150381554Y-99168626D01*
X150225178Y-99545220D01*
X150224822Y-99952991D01*
X150380541Y-100329857D01*
X150668626Y-100618446D01*
X151045220Y-100774822D01*
X151452991Y-100775178D01*
X151829857Y-100619459D01*
X152118446Y-100331374D01*
X152274822Y-99954780D01*
X152275178Y-99547009D01*
X152119459Y-99170143D01*
X151874744Y-98925000D01*
X166075000Y-98925000D01*
X166075000Y-109075000D01*
X166075000Y-109075000D01*
G37*
X166075000Y-109075000D02*
X161772106Y-109075000D01*
X161959730Y-108887375D01*
X162102845Y-108946802D01*
X162555171Y-108947197D01*
X162973217Y-108774464D01*
X163293340Y-108454900D01*
X163353507Y-108310000D01*
X163792370Y-108310000D01*
X163846359Y-108310000D01*
X163905536Y-108453217D01*
X164225100Y-108773340D01*
X164642845Y-108946802D01*
X165095171Y-108947197D01*
X165513217Y-108774464D01*
X165833340Y-108454900D01*
X166006802Y-108037155D01*
X166007197Y-107584829D01*
X166007197Y-105044829D01*
X166007197Y-102504829D01*
X165834464Y-102086783D01*
X165514900Y-101766660D01*
X165097155Y-101593198D01*
X164644829Y-101592803D01*
X164226783Y-101765536D01*
X163906660Y-102085100D01*
X163733198Y-102502845D01*
X163732803Y-102955171D01*
X163905536Y-103373217D01*
X164225100Y-103693340D01*
X164642845Y-103866802D01*
X165095171Y-103867197D01*
X165513217Y-103694464D01*
X165833340Y-103374900D01*
X166006802Y-102957155D01*
X166007197Y-102504829D01*
X166007197Y-105044829D01*
X165834464Y-104626783D01*
X165514900Y-104306660D01*
X165097155Y-104133198D01*
X164644829Y-104132803D01*
X164226783Y-104305536D01*
X163906660Y-104625100D01*
X163733198Y-105042845D01*
X163732803Y-105495171D01*
X163905536Y-105913217D01*
X164225100Y-106233340D01*
X164642845Y-106406802D01*
X165095171Y-106407197D01*
X165513217Y-106234464D01*
X165833340Y-105914900D01*
X166006802Y-105497155D01*
X166007197Y-105044829D01*
X166007197Y-107584829D01*
X165834464Y-107166783D01*
X165514900Y-106846660D01*
X165097155Y-106673198D01*
X164644829Y-106672803D01*
X164226783Y-106845536D01*
X163906660Y-107165100D01*
X163846492Y-107310000D01*
X163792370Y-107310000D01*
X163467197Y-107310000D01*
X163467197Y-105044829D01*
X163467197Y-102504829D01*
X163294464Y-102086783D01*
X162974900Y-101766660D01*
X162557155Y-101593198D01*
X162104829Y-101592803D01*
X161686783Y-101765536D01*
X161366660Y-102085100D01*
X161193198Y-102502845D01*
X161192803Y-102955171D01*
X161365536Y-103373217D01*
X161685100Y-103693340D01*
X162102845Y-103866802D01*
X162555171Y-103867197D01*
X162973217Y-103694464D01*
X163293340Y-103374900D01*
X163466802Y-102957155D01*
X163467197Y-102504829D01*
X163467197Y-105044829D01*
X163294464Y-104626783D01*
X162974900Y-104306660D01*
X162557155Y-104133198D01*
X162104829Y-104132803D01*
X161686783Y-104305536D01*
X161366660Y-104625100D01*
X161308508Y-104765144D01*
X161232370Y-104750000D01*
X153457106Y-104750000D01*
X153425028Y-104717921D01*
X153425117Y-104616323D01*
X153322571Y-104368143D01*
X153132856Y-104178097D01*
X152884855Y-104075117D01*
X152616323Y-104074883D01*
X152368143Y-104177429D01*
X152178097Y-104367144D01*
X152075117Y-104615145D01*
X152074883Y-104883677D01*
X152177429Y-105131857D01*
X152367144Y-105321903D01*
X152615145Y-105424883D01*
X152717865Y-105424972D01*
X152896447Y-105603554D01*
X153058658Y-105711940D01*
X153250000Y-105750000D01*
X161151822Y-105750000D01*
X161151824Y-105750000D01*
X161252370Y-105770000D01*
X161306359Y-105770000D01*
X161365536Y-105913217D01*
X161685100Y-106233340D01*
X162102845Y-106406802D01*
X162555171Y-106407197D01*
X162973217Y-106234464D01*
X163293340Y-105914900D01*
X163466802Y-105497155D01*
X163467197Y-105044829D01*
X163467197Y-107310000D01*
X163353640Y-107310000D01*
X163294464Y-107166783D01*
X162974900Y-106846660D01*
X162557155Y-106673198D01*
X162104829Y-106672803D01*
X161686783Y-106845536D01*
X161366660Y-107165100D01*
X161193198Y-107582845D01*
X161192803Y-108035171D01*
X161252717Y-108180175D01*
X160807892Y-108625001D01*
X157951746Y-108625001D01*
X156694667Y-107367922D01*
X156694756Y-107266323D01*
X156592210Y-107018143D01*
X156402495Y-106828097D01*
X156154494Y-106725117D01*
X155885962Y-106724883D01*
X155637782Y-106827429D01*
X155447736Y-107017144D01*
X155344756Y-107265145D01*
X155344522Y-107533677D01*
X155447068Y-107781857D01*
X155636783Y-107971903D01*
X155884784Y-108074883D01*
X155987505Y-108074972D01*
X156987532Y-109075000D01*
X152121092Y-109075000D01*
X152274822Y-108704780D01*
X152275178Y-108297009D01*
X152119459Y-107920143D01*
X151831374Y-107631554D01*
X151454780Y-107475178D01*
X151047009Y-107474822D01*
X150670143Y-107630541D01*
X150381554Y-107918626D01*
X150225178Y-108295220D01*
X150224822Y-108702991D01*
X150378534Y-109075000D01*
X146675000Y-109075000D01*
X146675000Y-98925000D01*
X150625606Y-98925000D01*
X150381554Y-99168626D01*
X150225178Y-99545220D01*
X150224822Y-99952991D01*
X150380541Y-100329857D01*
X150668626Y-100618446D01*
X151045220Y-100774822D01*
X151452991Y-100775178D01*
X151829857Y-100619459D01*
X152118446Y-100331374D01*
X152274822Y-99954780D01*
X152275178Y-99547009D01*
X152119459Y-99170143D01*
X151874744Y-98925000D01*
X166075000Y-98925000D01*
X166075000Y-109075000D01*
M02*
