G04 #@! TF.FileFunction,Copper,L1,Top,Signal*
%FSLAX46Y46*%
G04 Gerber Fmt 4.6, Leading zero omitted, Abs format (unit mm)*
G04 Created by KiCad (PCBNEW (after 2015-mar-04 BZR unknown)-product) date 04/08/2015 09:15:02*
%MOMM*%
G01*
G04 APERTURE LIST*
%ADD10C,0.100000*%
%ADD11R,0.889000X1.397000*%
%ADD12R,0.635000X1.143000*%
%ADD13R,1.143000X0.635000*%
%ADD14R,1.500000X2.300000*%
%ADD15R,0.950000X0.350000*%
%ADD16R,1.524000X1.524000*%
%ADD17C,1.524000*%
%ADD18R,2.032000X1.524000*%
%ADD19C,1.300000*%
%ADD20C,0.600000*%
%ADD21C,0.250000*%
G04 APERTURE END LIST*
D10*
D11*
X157400000Y-108400000D03*
X159305000Y-108400000D03*
X157447500Y-106800000D03*
X159352500Y-106800000D03*
X153000000Y-100800000D03*
X154905000Y-100800000D03*
D12*
X154562000Y-107400000D03*
X153038000Y-107400000D03*
D13*
X159000000Y-103400000D03*
X159000000Y-101876000D03*
D14*
X155625000Y-103825000D03*
D15*
X154000000Y-102850000D03*
X154000000Y-103500000D03*
X154000000Y-104150000D03*
X154000000Y-104800000D03*
X157250000Y-104800000D03*
X157250000Y-104150000D03*
X157250000Y-103500000D03*
X157250000Y-102850000D03*
D16*
X162330000Y-100190000D03*
D17*
X164870000Y-100190000D03*
X162330000Y-102730000D03*
X164870000Y-102730000D03*
X162330000Y-105270000D03*
X164870000Y-105270000D03*
X162330000Y-107810000D03*
X164870000Y-107810000D03*
D18*
X148800000Y-102349000D03*
X148800000Y-105651000D03*
D19*
X151250000Y-108500000D03*
X151250000Y-99750000D03*
D13*
X160250000Y-104238000D03*
X160250000Y-105762000D03*
D20*
X156019639Y-107400000D03*
X160250000Y-107000000D03*
X160500000Y-108500000D03*
X152500000Y-103250000D03*
X156000000Y-100750000D03*
X160250000Y-102250000D03*
X152750000Y-104750000D03*
D21*
X154562000Y-107400000D02*
X156019639Y-107400000D01*
X156019639Y-107400000D02*
X156847500Y-107400000D01*
X156847500Y-107400000D02*
X157447500Y-106800000D01*
X157400000Y-108400000D02*
X157400000Y-106847500D01*
X157400000Y-106847500D02*
X157447500Y-106800000D01*
X157250000Y-104800000D02*
X157250000Y-106602500D01*
X157250000Y-106602500D02*
X157447500Y-106800000D01*
X157250000Y-102850000D02*
X158026000Y-102850000D01*
X158026000Y-102850000D02*
X159000000Y-101876000D01*
X160250000Y-107000000D02*
X159552500Y-107000000D01*
X159552500Y-107000000D02*
X159352500Y-106800000D01*
X159305000Y-108400000D02*
X160400000Y-108400000D01*
X160400000Y-108400000D02*
X160500000Y-108500000D01*
X154000000Y-103500000D02*
X152750000Y-103500000D01*
X152750000Y-103500000D02*
X152500000Y-103250000D01*
X154905000Y-100800000D02*
X155950000Y-100800000D01*
X155950000Y-100800000D02*
X156000000Y-100750000D01*
X159000000Y-101876000D02*
X159876000Y-101876000D01*
X159876000Y-101876000D02*
X160250000Y-102250000D01*
X151567000Y-104150000D02*
X152963134Y-104150000D01*
X153049999Y-104450001D02*
X153049999Y-104236865D01*
X152963134Y-104150000D02*
X154000000Y-104150000D01*
X153049999Y-104236865D02*
X152963134Y-104150000D01*
X152750000Y-104750000D02*
X153049999Y-104450001D01*
X148800000Y-105651000D02*
X150066000Y-105651000D01*
X150066000Y-105651000D02*
X151567000Y-104150000D01*
X159000000Y-103400000D02*
X161391238Y-103400000D01*
X161391238Y-103400000D02*
X161808239Y-103817001D01*
X161808239Y-103817001D02*
X162851761Y-103817001D01*
X162851761Y-103817001D02*
X163168762Y-103500000D01*
X163168762Y-103500000D02*
X164100000Y-103500000D01*
X164100000Y-103500000D02*
X164108001Y-103491999D01*
X164108001Y-103491999D02*
X164870000Y-102730000D01*
X157250000Y-103500000D02*
X158900000Y-103500000D01*
X158900000Y-103500000D02*
X159000000Y-103400000D01*
X156750000Y-102000000D02*
X157516501Y-101233499D01*
X157516501Y-101233499D02*
X160833499Y-101233499D01*
X160833499Y-101233499D02*
X161568001Y-101968001D01*
X161568001Y-101968001D02*
X162330000Y-102730000D01*
X154425000Y-102000000D02*
X156750000Y-102000000D01*
X154000000Y-102850000D02*
X154000000Y-102425000D01*
X154000000Y-102425000D02*
X154425000Y-102000000D01*
X160250000Y-104238000D02*
X160504000Y-104238000D01*
X160504000Y-104238000D02*
X161242999Y-104976999D01*
X161242999Y-104976999D02*
X161242999Y-105791761D01*
X161242999Y-105791761D02*
X161808239Y-106357001D01*
X161808239Y-106357001D02*
X163782999Y-106357001D01*
X160250000Y-104238000D02*
X157338000Y-104238000D01*
X157338000Y-104238000D02*
X157250000Y-104150000D01*
X164870000Y-105270000D02*
X163782999Y-106357001D01*
X148800000Y-102349000D02*
X149054000Y-102349000D01*
X149054000Y-102349000D02*
X150603000Y-100800000D01*
X150603000Y-100800000D02*
X153000000Y-100800000D01*
X153038000Y-107400000D02*
X147650000Y-107400000D01*
X147650000Y-107400000D02*
X146750000Y-106500000D01*
X146750000Y-106500000D02*
X146750000Y-102500000D01*
X146750000Y-102500000D02*
X146901000Y-102349000D01*
X146901000Y-102349000D02*
X148800000Y-102349000D01*
G36*
X161252624Y-102359730D02*
X161193198Y-102502845D01*
X161192851Y-102900000D01*
X159900147Y-102900000D01*
X159843551Y-102813842D01*
X159718925Y-102729719D01*
X159571500Y-102700153D01*
X158428500Y-102700153D01*
X158285514Y-102727896D01*
X158159842Y-102810449D01*
X158075719Y-102935075D01*
X158062698Y-103000000D01*
X157913581Y-103000000D01*
X157872425Y-102972219D01*
X157725000Y-102942653D01*
X156775000Y-102942653D01*
X156757347Y-102946078D01*
X156757347Y-102675000D01*
X156729604Y-102532014D01*
X156708574Y-102500000D01*
X156750000Y-102500000D01*
X156750000Y-102499999D01*
X156941342Y-102461940D01*
X157103553Y-102353553D01*
X157723607Y-101733499D01*
X160626392Y-101733499D01*
X161214448Y-102321555D01*
X161214451Y-102321557D01*
X161252624Y-102359730D01*
X161252624Y-102359730D01*
G37*
X161252624Y-102359730D02*
X161193198Y-102502845D01*
X161192851Y-102900000D01*
X159900147Y-102900000D01*
X159843551Y-102813842D01*
X159718925Y-102729719D01*
X159571500Y-102700153D01*
X158428500Y-102700153D01*
X158285514Y-102727896D01*
X158159842Y-102810449D01*
X158075719Y-102935075D01*
X158062698Y-103000000D01*
X157913581Y-103000000D01*
X157872425Y-102972219D01*
X157725000Y-102942653D01*
X156775000Y-102942653D01*
X156757347Y-102946078D01*
X156757347Y-102675000D01*
X156729604Y-102532014D01*
X156708574Y-102500000D01*
X156750000Y-102500000D01*
X156750000Y-102499999D01*
X156941342Y-102461940D01*
X157103553Y-102353553D01*
X157723607Y-101733499D01*
X160626392Y-101733499D01*
X161214448Y-102321555D01*
X161214451Y-102321557D01*
X161252624Y-102359730D01*
G36*
X166075000Y-109075000D02*
X166007197Y-109075000D01*
X166007197Y-107584829D01*
X165834464Y-107166783D01*
X165514900Y-106846660D01*
X165097155Y-106673198D01*
X164644829Y-106672803D01*
X164226783Y-106845536D01*
X163906660Y-107165100D01*
X163733198Y-107582845D01*
X163732803Y-108035171D01*
X163905536Y-108453217D01*
X164225100Y-108773340D01*
X164642845Y-108946802D01*
X165095171Y-108947197D01*
X165513217Y-108774464D01*
X165833340Y-108454900D01*
X166006802Y-108037155D01*
X166007197Y-107584829D01*
X166007197Y-109075000D01*
X158226847Y-109075000D01*
X158226847Y-107701500D01*
X158222475Y-107678969D01*
X158244781Y-107645925D01*
X158274347Y-107498500D01*
X158274347Y-106101500D01*
X158246604Y-105958514D01*
X158164051Y-105832842D01*
X158039425Y-105748719D01*
X157892000Y-105719153D01*
X157750000Y-105719153D01*
X157750000Y-105352496D01*
X157867986Y-105329604D01*
X157993658Y-105247051D01*
X158077781Y-105122425D01*
X158107347Y-104975000D01*
X158107347Y-104738000D01*
X159349852Y-104738000D01*
X159406449Y-104824158D01*
X159531075Y-104908281D01*
X159678500Y-104937847D01*
X160496740Y-104937847D01*
X160742999Y-105184105D01*
X160742999Y-105791761D01*
X160781059Y-105983103D01*
X160889446Y-106145314D01*
X161454686Y-106710554D01*
X161616897Y-106818941D01*
X161707521Y-106836967D01*
X161686783Y-106845536D01*
X161366660Y-107165100D01*
X161193198Y-107582845D01*
X161192803Y-108035171D01*
X161365536Y-108453217D01*
X161685100Y-108773340D01*
X162102845Y-108946802D01*
X162555171Y-108947197D01*
X162973217Y-108774464D01*
X163293340Y-108454900D01*
X163466802Y-108037155D01*
X163467197Y-107584829D01*
X163294464Y-107166783D01*
X162985222Y-106857001D01*
X163782999Y-106857001D01*
X163782999Y-106857000D01*
X163974341Y-106818941D01*
X164136552Y-106710554D01*
X164499730Y-106347375D01*
X164642845Y-106406802D01*
X165095171Y-106407197D01*
X165513217Y-106234464D01*
X165833340Y-105914900D01*
X166006802Y-105497155D01*
X166007197Y-105044829D01*
X165834464Y-104626783D01*
X165514900Y-104306660D01*
X165097155Y-104133198D01*
X164644829Y-104132803D01*
X164226783Y-104305536D01*
X163906660Y-104625100D01*
X163733198Y-105042845D01*
X163732803Y-105495171D01*
X163792717Y-105640175D01*
X163575892Y-105857001D01*
X163317381Y-105857001D01*
X163466802Y-105497155D01*
X163467197Y-105044829D01*
X163294464Y-104626783D01*
X162974900Y-104306660D01*
X162951855Y-104297091D01*
X163043103Y-104278941D01*
X163205314Y-104170554D01*
X163375868Y-104000000D01*
X164100000Y-104000000D01*
X164100000Y-103999999D01*
X164291342Y-103961940D01*
X164453553Y-103853553D01*
X164461554Y-103845552D01*
X164499730Y-103807375D01*
X164642845Y-103866802D01*
X165095171Y-103867197D01*
X165513217Y-103694464D01*
X165833340Y-103374900D01*
X166006802Y-102957155D01*
X166007197Y-102504829D01*
X165834464Y-102086783D01*
X165514900Y-101766660D01*
X165097155Y-101593198D01*
X164644829Y-101592803D01*
X164226783Y-101765536D01*
X163906660Y-102085100D01*
X163733198Y-102502845D01*
X163732803Y-102955171D01*
X163751325Y-103000000D01*
X163449011Y-103000000D01*
X163466802Y-102957155D01*
X163467197Y-102504829D01*
X163294464Y-102086783D01*
X162974900Y-101766660D01*
X162557155Y-101593198D01*
X162104829Y-101592803D01*
X161959823Y-101652717D01*
X161921557Y-101614451D01*
X161921555Y-101614448D01*
X161187052Y-100879946D01*
X161024841Y-100771559D01*
X160833499Y-100733499D01*
X157516501Y-100733499D01*
X157325159Y-100771559D01*
X157162948Y-100879946D01*
X156542894Y-101500000D01*
X154425000Y-101500000D01*
X154233658Y-101538060D01*
X154071447Y-101646446D01*
X153646447Y-102071447D01*
X153538060Y-102233658D01*
X153526325Y-102292653D01*
X153525000Y-102292653D01*
X153382014Y-102320396D01*
X153256342Y-102402949D01*
X153172219Y-102527575D01*
X153142653Y-102675000D01*
X153142653Y-103025000D01*
X153170396Y-103167986D01*
X153252949Y-103293658D01*
X153377575Y-103377781D01*
X153525000Y-103407347D01*
X154475000Y-103407347D01*
X154492653Y-103403921D01*
X154492653Y-103596193D01*
X154475000Y-103592653D01*
X153525000Y-103592653D01*
X153382014Y-103620396D01*
X153336947Y-103650000D01*
X152963134Y-103650000D01*
X151567000Y-103650000D01*
X151375658Y-103688060D01*
X151310685Y-103731473D01*
X151213447Y-103796446D01*
X150185761Y-104824132D01*
X150170604Y-104746014D01*
X150088051Y-104620342D01*
X149963425Y-104536219D01*
X149816000Y-104506653D01*
X147784000Y-104506653D01*
X147641014Y-104534396D01*
X147515342Y-104616949D01*
X147431219Y-104741575D01*
X147401653Y-104889000D01*
X147401653Y-106413000D01*
X147409247Y-106452141D01*
X147250000Y-106292893D01*
X147250000Y-102849000D01*
X147401653Y-102849000D01*
X147401653Y-103111000D01*
X147429396Y-103253986D01*
X147511949Y-103379658D01*
X147636575Y-103463781D01*
X147784000Y-103493347D01*
X149816000Y-103493347D01*
X149958986Y-103465604D01*
X150084658Y-103383051D01*
X150168781Y-103258425D01*
X150198347Y-103111000D01*
X150198347Y-101911759D01*
X150810106Y-101300000D01*
X152173153Y-101300000D01*
X152173153Y-101498500D01*
X152200896Y-101641486D01*
X152283449Y-101767158D01*
X152408075Y-101851281D01*
X152555500Y-101880847D01*
X153444500Y-101880847D01*
X153587486Y-101853104D01*
X153713158Y-101770551D01*
X153797281Y-101645925D01*
X153826847Y-101498500D01*
X153826847Y-100101500D01*
X153799104Y-99958514D01*
X153716551Y-99832842D01*
X153591925Y-99748719D01*
X153444500Y-99719153D01*
X152555500Y-99719153D01*
X152412514Y-99746896D01*
X152286842Y-99829449D01*
X152274915Y-99847117D01*
X152275178Y-99547009D01*
X152119459Y-99170143D01*
X151874744Y-98925000D01*
X166075000Y-98925000D01*
X166075000Y-109075000D01*
X166075000Y-109075000D01*
G37*
X166075000Y-109075000D02*
X166007197Y-109075000D01*
X166007197Y-107584829D01*
X165834464Y-107166783D01*
X165514900Y-106846660D01*
X165097155Y-106673198D01*
X164644829Y-106672803D01*
X164226783Y-106845536D01*
X163906660Y-107165100D01*
X163733198Y-107582845D01*
X163732803Y-108035171D01*
X163905536Y-108453217D01*
X164225100Y-108773340D01*
X164642845Y-108946802D01*
X165095171Y-108947197D01*
X165513217Y-108774464D01*
X165833340Y-108454900D01*
X166006802Y-108037155D01*
X166007197Y-107584829D01*
X166007197Y-109075000D01*
X158226847Y-109075000D01*
X158226847Y-107701500D01*
X158222475Y-107678969D01*
X158244781Y-107645925D01*
X158274347Y-107498500D01*
X158274347Y-106101500D01*
X158246604Y-105958514D01*
X158164051Y-105832842D01*
X158039425Y-105748719D01*
X157892000Y-105719153D01*
X157750000Y-105719153D01*
X157750000Y-105352496D01*
X157867986Y-105329604D01*
X157993658Y-105247051D01*
X158077781Y-105122425D01*
X158107347Y-104975000D01*
X158107347Y-104738000D01*
X159349852Y-104738000D01*
X159406449Y-104824158D01*
X159531075Y-104908281D01*
X159678500Y-104937847D01*
X160496740Y-104937847D01*
X160742999Y-105184105D01*
X160742999Y-105791761D01*
X160781059Y-105983103D01*
X160889446Y-106145314D01*
X161454686Y-106710554D01*
X161616897Y-106818941D01*
X161707521Y-106836967D01*
X161686783Y-106845536D01*
X161366660Y-107165100D01*
X161193198Y-107582845D01*
X161192803Y-108035171D01*
X161365536Y-108453217D01*
X161685100Y-108773340D01*
X162102845Y-108946802D01*
X162555171Y-108947197D01*
X162973217Y-108774464D01*
X163293340Y-108454900D01*
X163466802Y-108037155D01*
X163467197Y-107584829D01*
X163294464Y-107166783D01*
X162985222Y-106857001D01*
X163782999Y-106857001D01*
X163782999Y-106857000D01*
X163974341Y-106818941D01*
X164136552Y-106710554D01*
X164499730Y-106347375D01*
X164642845Y-106406802D01*
X165095171Y-106407197D01*
X165513217Y-106234464D01*
X165833340Y-105914900D01*
X166006802Y-105497155D01*
X166007197Y-105044829D01*
X165834464Y-104626783D01*
X165514900Y-104306660D01*
X165097155Y-104133198D01*
X164644829Y-104132803D01*
X164226783Y-104305536D01*
X163906660Y-104625100D01*
X163733198Y-105042845D01*
X163732803Y-105495171D01*
X163792717Y-105640175D01*
X163575892Y-105857001D01*
X163317381Y-105857001D01*
X163466802Y-105497155D01*
X163467197Y-105044829D01*
X163294464Y-104626783D01*
X162974900Y-104306660D01*
X162951855Y-104297091D01*
X163043103Y-104278941D01*
X163205314Y-104170554D01*
X163375868Y-104000000D01*
X164100000Y-104000000D01*
X164100000Y-103999999D01*
X164291342Y-103961940D01*
X164453553Y-103853553D01*
X164461554Y-103845552D01*
X164499730Y-103807375D01*
X164642845Y-103866802D01*
X165095171Y-103867197D01*
X165513217Y-103694464D01*
X165833340Y-103374900D01*
X166006802Y-102957155D01*
X166007197Y-102504829D01*
X165834464Y-102086783D01*
X165514900Y-101766660D01*
X165097155Y-101593198D01*
X164644829Y-101592803D01*
X164226783Y-101765536D01*
X163906660Y-102085100D01*
X163733198Y-102502845D01*
X163732803Y-102955171D01*
X163751325Y-103000000D01*
X163449011Y-103000000D01*
X163466802Y-102957155D01*
X163467197Y-102504829D01*
X163294464Y-102086783D01*
X162974900Y-101766660D01*
X162557155Y-101593198D01*
X162104829Y-101592803D01*
X161959823Y-101652717D01*
X161921557Y-101614451D01*
X161921555Y-101614448D01*
X161187052Y-100879946D01*
X161024841Y-100771559D01*
X160833499Y-100733499D01*
X157516501Y-100733499D01*
X157325159Y-100771559D01*
X157162948Y-100879946D01*
X156542894Y-101500000D01*
X154425000Y-101500000D01*
X154233658Y-101538060D01*
X154071447Y-101646446D01*
X153646447Y-102071447D01*
X153538060Y-102233658D01*
X153526325Y-102292653D01*
X153525000Y-102292653D01*
X153382014Y-102320396D01*
X153256342Y-102402949D01*
X153172219Y-102527575D01*
X153142653Y-102675000D01*
X153142653Y-103025000D01*
X153170396Y-103167986D01*
X153252949Y-103293658D01*
X153377575Y-103377781D01*
X153525000Y-103407347D01*
X154475000Y-103407347D01*
X154492653Y-103403921D01*
X154492653Y-103596193D01*
X154475000Y-103592653D01*
X153525000Y-103592653D01*
X153382014Y-103620396D01*
X153336947Y-103650000D01*
X152963134Y-103650000D01*
X151567000Y-103650000D01*
X151375658Y-103688060D01*
X151310685Y-103731473D01*
X151213447Y-103796446D01*
X150185761Y-104824132D01*
X150170604Y-104746014D01*
X150088051Y-104620342D01*
X149963425Y-104536219D01*
X149816000Y-104506653D01*
X147784000Y-104506653D01*
X147641014Y-104534396D01*
X147515342Y-104616949D01*
X147431219Y-104741575D01*
X147401653Y-104889000D01*
X147401653Y-106413000D01*
X147409247Y-106452141D01*
X147250000Y-106292893D01*
X147250000Y-102849000D01*
X147401653Y-102849000D01*
X147401653Y-103111000D01*
X147429396Y-103253986D01*
X147511949Y-103379658D01*
X147636575Y-103463781D01*
X147784000Y-103493347D01*
X149816000Y-103493347D01*
X149958986Y-103465604D01*
X150084658Y-103383051D01*
X150168781Y-103258425D01*
X150198347Y-103111000D01*
X150198347Y-101911759D01*
X150810106Y-101300000D01*
X152173153Y-101300000D01*
X152173153Y-101498500D01*
X152200896Y-101641486D01*
X152283449Y-101767158D01*
X152408075Y-101851281D01*
X152555500Y-101880847D01*
X153444500Y-101880847D01*
X153587486Y-101853104D01*
X153713158Y-101770551D01*
X153797281Y-101645925D01*
X153826847Y-101498500D01*
X153826847Y-100101500D01*
X153799104Y-99958514D01*
X153716551Y-99832842D01*
X153591925Y-99748719D01*
X153444500Y-99719153D01*
X152555500Y-99719153D01*
X152412514Y-99746896D01*
X152286842Y-99829449D01*
X152274915Y-99847117D01*
X152275178Y-99547009D01*
X152119459Y-99170143D01*
X151874744Y-98925000D01*
X166075000Y-98925000D01*
X166075000Y-109075000D01*
M02*
